<svg width="166" height="101" viewBox="0 0 166 101" fill="none" xmlns="http://www.w3.org/2000/svg">
<path d="M20 23C20 19.6863 22.6863 17 26 17H158C161.314 17 164 19.6863 164 23C164 26.3137 161.314 29 158 29H26C22.6863 29 20 26.3137 20 23Z" fill="#CFE5F4"/>
<path d="M7 35C7 31.6863 9.68629 29 13 29H149C152.314 29 155 31.6863 155 35C155 38.3137 152.314 41 149 41H13C9.68629 41 7 38.3137 7 35Z" fill="#CFE5F4"/>
<path d="M31 65C34.3137 65 37 62.3137 37 59C37 55.6863 34.3137 53 31 53H160C163.314 53 166 55.6863 166 59C166 62.3137 163.314 65 160 65H31Z" fill="#CFE5F4"/>
<path d="M120 65H6C2.68629 65 0 67.6863 0 71C0 74.3137 2.68629 77 6 77H120C116.686 77 114 74.3137 114 71C114 67.6863 116.686 65 120 65Z" fill="#CFE5F4"/>
<path d="M138 41.0449C138 41.0201 137.98 41 137.955 41H25C21.6863 41 19 43.6863 19 47C19 50.3137 21.6863 53 25 53H137.955C137.98 53 138 52.9799 138 52.9551C138 52.9331 137.984 52.9144 137.962 52.9106C135.143 52.4191 133 49.9599 133 47C133 44.0401 135.143 41.5809 137.962 41.0894C137.984 41.0856 138 41.0669 138 41.0449Z" fill="#CFE5F4"/>
<path d="M16 83C16 79.6863 18.6863 77 22 77H148C151.314 77 154 79.6863 154 83C154 86.3137 151.314 89 148 89H22C18.6863 89 16 86.3137 16 83Z" fill="#CFE5F4"/>
<path d="M11 95C11 91.6863 13.6863 89 17 89H133C136.314 89 139 91.6863 139 95C139 98.3137 136.314 101 133 101H17C13.6863 101 11 98.3137 11 95Z" fill="#CFE5F4"/>
<path d="M53 41.5C53 40.6716 53.6716 40 54.5 40H61.5C62.3284 40 63 40.6716 63 41.5C63 42.3284 62.3284 43 61.5 43H54.5C53.6716 43 53 42.3284 53 41.5Z" fill="#017CC6"/>
<path d="M46 49.5C46 48.6716 46.6716 48 47.5 48H65.5C66.3284 48 67 48.6716 67 49.5C67 50.3284 66.3284 51 65.5 51H47.5C46.6716 51 46 50.3284 46 49.5Z" fill="#017CC6"/>
<path d="M56 57.5C56 56.6716 56.6716 56 57.5 56H69.5C70.3284 56 71 56.6716 71 57.5C71 58.3284 70.3284 59 69.5 59H57.5C56.6716 59 56 58.3284 56 57.5Z" fill="#017CC6"/>
<path fill-rule="evenodd" clip-rule="evenodd" d="M62.058 32.5H55.5V29.5H62.372C63.3319 29.5 64.207 30.0496 64.6239 30.9143L66.8349 35.5H111.131C113.788 35.5 115.476 38.3437 114.204 40.676L104.385 58.676C103.772 59.8004 102.594 60.5 101.313 60.5H77.3826L71.962 70.2572C71.7768 70.5904 72.0178 71 72.399 71H110.5V74H72.399C69.7303 74 68.0434 71.1331 69.3395 68.8003L74.8112 58.9511L62.058 32.5ZM77.442 57.5H101.313C101.496 57.5 101.664 57.4001 101.752 57.2394L111.57 39.2394C111.752 38.9062 111.51 38.5 111.131 38.5H68.2813L77.442 57.5Z" fill="#017CC6"/>
<path d="M83 82C83 84.7614 80.7614 87 78 87C75.2386 87 73 84.7614 73 82C73 79.2386 75.2386 77 78 77C80.7614 77 83 79.2386 83 82Z" fill="#017CC6"/>
<path d="M105 82C105 84.7614 102.761 87 100 87C97.2386 87 95 84.7614 95 82C95 79.2386 97.2386 77 100 77C102.761 77 105 79.2386 105 82Z" fill="#017CC6"/>
<path d="M97 44.5C97 45.3284 96.3284 46 95.5 46C94.6716 46 94 45.3284 94 44.5C94 43.6716 94.6716 43 95.5 43C96.3284 43 97 43.6716 97 44.5Z" fill="#017CC6"/>
<path d="M86 44.5C86 45.3284 85.3284 46 84.5 46C83.6716 46 83 45.3284 83 44.5C83 43.6716 83.6716 43 84.5 43C85.3284 43 86 43.6716 86 44.5Z" fill="#017CC6"/>
<path d="M90.3537 49.4728C91.2046 49.708 91.9904 50.0468 92.7111 50.4891C93.4308 50.9352 94.0482 51.4726 94.5634 52.1013C95.0786 52.7301 95.4009 53.3237 95.5302 53.8822L94.7819 53.9064C94.5121 53.2402 93.9932 52.6104 93.225 52.0171C92.4558 51.4277 91.5394 50.9677 90.4757 50.6372L89.9972 50.4989C88.5439 50.0972 87.2092 50.0141 85.9932 50.2494C85.2647 50.3925 84.6588 50.6344 84.1756 50.975L83.5967 50.584C84.0138 50.1603 84.6128 49.8112 85.3938 49.5366C86.9195 49.0019 88.5728 48.9806 90.3537 49.4728Z" fill="#017CC6"/>
<path fill-rule="evenodd" clip-rule="evenodd" d="M88 23V22H89V23H88Z" fill="#01BDE9"/>
<path fill-rule="evenodd" clip-rule="evenodd" d="M90 24H89V23H90V24Z" fill="#01BDE9"/>
<path fill-rule="evenodd" clip-rule="evenodd" d="M88 24H87V23H88V24Z" fill="#01BDE9"/>
<path fill-rule="evenodd" clip-rule="evenodd" d="M88 25V24H89V25H88Z" fill="#01BDE9"/>
<path fill-rule="evenodd" clip-rule="evenodd" d="M35.5 17V19.5H33V21.5H35.5V24H37.5V21.5H39.5H40V19.5H39.5H37.5V17H35.5ZM37.5 20.5C37.5 19.9477 37.0523 19.5 36.5 19.5C35.9477 19.5 35.5 19.9477 35.5 20.5C35.5 21.0523 35.9477 21.5 36.5 21.5C37.0523 21.5 37.5 21.0523 37.5 20.5Z" fill="#00903D"/>
<path fill-rule="evenodd" clip-rule="evenodd" d="M124.5 3V5.5H122V7.5H124.5V10H126.5V7.5H128.5H129V5.5H128.5H126.5V3H124.5ZM126.5 6.5C126.5 5.94772 126.052 5.5 125.5 5.5C124.948 5.5 124.5 5.94772 124.5 6.5C124.5 7.05228 124.948 7.5 125.5 7.5C126.052 7.5 126.5 7.05228 126.5 6.5Z" fill="#F3D3A3"/>
<path fill-rule="evenodd" clip-rule="evenodd" d="M37.5 2.5V0H39.5V2.5H37.5ZM37 5H34V3H37V5ZM37.5 5V3H39.5V5H37.5ZM42.5 5H40V3H42.5V5ZM37.5 8.5V6H39.5V8.5H37.5Z" fill="#D5A968"/>
<path fill-rule="evenodd" clip-rule="evenodd" d="M54.5 1.5H57.5V4.5H54.5V1.5ZM55.5 2.5V3.5H56.5V2.5H55.5ZM51 5H54V8H51V5ZM52 6V7H53V6H52ZM58 5H61V8H58V5ZM59 6V7H60V6H59ZM54.5 8H57.5V11H54.5V8ZM55.5 9V10H56.5V9H55.5Z" fill="#017CC6"/>
<path d="M68.7545 9.38312C68.4005 8.95919 68.4572 8.32857 68.8812 7.97459C69.3051 7.62061 69.9357 7.67731 70.2897 8.10124L72.8582 11.1773C73.2122 11.6012 73.1555 12.2318 72.7315 12.5858C72.3076 12.9398 71.677 12.8831 71.323 12.4592L68.7545 9.38312Z" fill="#01BDE9"/>
<path d="M73.6409 15.0495C73.287 14.6255 73.3437 13.9949 73.7676 13.6409C74.1915 13.287 74.8221 13.3437 75.1761 13.7676L79.559 19.0166C79.913 19.4405 79.8563 20.0711 79.4324 20.4251C79.0084 20.7791 78.3778 20.7224 78.0238 20.2985L73.6409 15.0495Z" fill="#01BDE9"/>
<path d="M85 9.5C85 8.67157 85.6716 8 86.5 8C87.3284 8 88 8.67157 88 9.5V14.5C88 15.3284 87.3284 16 86.5 16C85.6716 16 85 15.3284 85 14.5V9.5Z" fill="#01BDE9"/>
<path d="M100.073 8.49085C100.333 7.70432 101.181 7.27758 101.968 7.53771C102.754 7.79783 103.181 8.64631 102.921 9.43284L99.0815 21.0425C98.8214 21.829 97.9729 22.2557 97.1864 21.9956C96.3999 21.7355 95.9731 20.887 96.2332 20.1005L100.073 8.49085Z" fill="#01BDE9"/>
<path d="M113.881 17.9685C114.514 17.4336 115.46 17.5128 115.995 18.1454C116.53 18.778 116.451 19.7244 115.818 20.2593L109.082 25.9549C108.45 26.4898 107.503 26.4106 106.969 25.778C106.434 25.1454 106.513 24.1989 107.145 23.664L113.881 17.9685Z" fill="#01BDE9"/>
<path d="M135 21C135 21.5523 134.552 22 134 22C133.448 22 133 21.5523 133 21C133 20.4477 133.448 20 134 20C134.552 20 135 20.4477 135 21Z" fill="#8CA3B2"/>
<path d="M137 22C137 22.5523 136.552 23 136 23C135.448 23 135 22.5523 135 22C135 21.4477 135.448 21 136 21C136.552 21 137 21.4477 137 22Z" fill="#8CA3B2"/>
<path d="M138 24C138 24.5523 137.552 25 137 25C136.448 25 136 24.5523 136 24C136 23.4477 136.448 23 137 23C137.552 23 138 23.4477 138 24Z" fill="#8CA3B2"/>
<path d="M137 26C137 26.5523 136.552 27 136 27C135.448 27 135 26.5523 135 26C135 25.4477 135.448 25 136 25C136.552 25 137 25.4477 137 26Z" fill="#8CA3B2"/>
<path d="M135 27C135 27.5523 134.552 28 134 28C133.448 28 133 27.5523 133 27C133 26.4477 133.448 26 134 26C134.552 26 135 26.4477 135 27Z" fill="#8CA3B2"/>
<path d="M133 26C133 26.5523 132.552 27 132 27C131.448 27 131 26.5523 131 26C131 25.4477 131.448 25 132 25C132.552 25 133 25.4477 133 26Z" fill="#8CA3B2"/>
<path d="M132 24C132 24.5523 131.552 25 131 25C130.448 25 130 24.5523 130 24C130 23.4477 130.448 23 131 23C131.552 23 132 23.4477 132 24Z" fill="#8CA3B2"/>
<path d="M133 22C133 22.5523 132.552 23 132 23C131.448 23 131 22.5523 131 22C131 21.4477 131.448 21 132 21C132.552 21 133 21.4477 133 22Z" fill="#8CA3B2"/>
</svg>
