<svg width="101" height="95" viewBox="0 0 101 95" fill="none" xmlns="http://www.w3.org/2000/svg">
<circle cx="84.141" cy="77.9559" r="14.7598" fill="white"/>
<path d="M69.3812 59.9831C70.2672 55.5525 75.6733 38.563 78.8194 28.4553H85.8479L81.8316 61.9912C78.0831 64.401 70.3451 69.7226 69.3812 70.5258C68.1763 71.5299 68.5779 63.9994 69.3812 59.9831Z" fill="#E66C38" fill-opacity="0.6"/>
<path d="M98.9008 76.4498H69.3812C69.8163 75.4458 70.9676 73.1565 72.0922 72.0319C73.2167 70.9074 74.6358 68.3503 75.2048 67.2124L83.8398 63.0957C85.9818 63.9659 90.9888 65.9071 93.8805 66.7104C96.7722 67.5136 98.4322 73.538 98.9008 76.4498Z" fill="#E66C38" fill-opacity="0.6"/>
<circle cx="17.27" cy="77.9559" r="14.7598" fill="white"/>
<path d="M50.605 50.2438C50.605 51.2478 45.6516 67.5807 43.0745 75.6467H2.30933C2.30938 66.9113 5.56251 60.5656 8.13293 56.8706C11.3459 52.2519 16.1655 49.7153 16.768 49.2397C18.2942 48.0348 25.6037 45.5247 29.118 45.5247H43.0745C44.0451 45.5247 46.1871 45.5247 47.6932 46.1271C49.0378 46.6649 50.605 47.9149 50.605 50.2438Z" fill="#E66C38" fill-opacity="0.6"/>
<path fill-rule="evenodd" clip-rule="evenodd" d="M86.3499 0.136953C83.7835 0.677945 81.3993 2.17401 79.9362 4.16166C79.1658 5.2081 78.217 7.19957 78.217 7.76989C78.217 7.87571 75.8685 7.97934 72.6982 8.01347L67.1793 8.07271L66.5232 8.72917C65.9585 9.29406 65.8669 9.5248 65.8669 10.3821C65.8669 11.2393 65.9585 11.4701 66.5232 12.035L67.1793 12.6914L72.6982 12.7507C77.1454 12.7985 78.217 12.8621 78.217 13.0788C78.217 13.2268 78.5877 14.0885 79.0409 14.9938C80.3536 17.6168 82.4062 19.3872 85.2455 20.3455C86.0985 20.6334 86.9546 20.719 89.0061 20.7212L91.6623 20.724L92.3195 20.0675L92.9768 19.4111V10.3821V1.35308L92.3207 0.696621L91.6649 0.0401607L89.4089 0.00381343C88.1683 -0.0160671 86.7917 0.043775 86.3499 0.136953ZM88.2577 10.3821V16.0049H87.7914C86.012 16.0049 83.6024 14.154 82.9715 12.3025C82.1481 9.88606 82.909 7.4024 84.9497 5.84609C85.7533 5.23301 86.9096 4.78077 87.7054 4.76812L88.2577 4.75929V10.3821ZM13.4545 8.16388C12.5717 8.52896 12.0488 9.35893 12.0488 10.3943C12.0488 11.2379 12.1424 11.4721 12.7053 12.035L13.3618 12.6914H29.62H45.8783L46.4906 12.0789C47.269 11.3008 47.4551 10.2855 46.9969 9.31957C46.3284 7.91066 47.1133 7.9709 29.5897 7.98496C20.9362 7.99199 13.6754 8.07251 13.4545 8.16388ZM77.8648 24.7945C77.1473 25.4648 76.9328 26.0622 77.0965 26.9346C77.3071 28.0567 78.2738 28.7208 80.0219 28.9437C82.207 29.2224 83.1287 30.0719 83.7418 32.3712C84.1643 33.9564 84.1607 37.8775 83.7339 40.9052C83.2446 44.3774 82.815 46.346 80.793 54.3826L78.9431 61.7346L77.6306 62.3063C75.6383 63.1742 73.586 64.6434 72.0147 66.3258C69.6131 68.8974 68.2544 71.6235 67.6592 75.065C67.217 77.6228 67.3377 78.716 68.1524 79.5309L68.7864 80.1649L82.4407 80.2191L96.095 80.2735L95.9661 80.8215C95.0173 84.8563 91.1775 88.6181 87.0034 89.6023C84.4121 90.2132 81.0101 89.811 78.6485 88.6141C78.0915 88.332 76.9207 87.4323 76.0468 86.615C74.3228 85.0029 73.6378 84.7073 72.4976 85.0836C71.5482 85.3969 70.9877 86.1566 70.9877 87.1301C70.9877 88.2027 71.371 88.8605 72.7075 90.0819C74.2551 91.4964 75.3421 92.2177 77.2786 93.1156C86.7323 97.4981 97.8216 92.2784 100.527 82.173C101.113 79.9813 101.162 76.1761 100.631 74.0401C100.205 72.3241 99.039 69.6852 98.1108 68.3363C96.3204 65.7338 93.3853 63.3881 90.4473 62.2117C88.9545 61.6139 86.0304 60.9872 84.7344 60.9872H84.0751L85.0682 57.2219C88.3266 44.868 89.3607 38.5412 88.8688 33.9715C88.4999 30.5462 87.735 28.565 86.111 26.8287C84.4755 25.0804 82.4592 24.2382 79.9086 24.2382C78.6032 24.2382 78.4015 24.2931 77.8648 24.7945ZM33.5359 25.8327C32.6501 26.2052 32.1302 27.0313 32.1302 28.0659C32.1302 28.9096 32.2238 29.1437 32.7867 29.7066L33.4431 30.3631H43.677H53.9109L54.5673 29.7066C55.1324 29.1415 55.2238 28.9112 55.2238 28.0537C55.2238 27.1962 55.1322 26.9659 54.5673 26.4008L53.9111 25.7443L43.9242 25.704C38.4315 25.6819 33.7568 25.7397 33.5359 25.8327ZM1.4057 43.5019C0.517296 43.8808 0 44.7038 0 45.7376C0 46.5812 0.0935793 46.8153 0.65646 47.3782L1.31292 48.0347H6.32564H11.3384L11.9948 47.3782C12.5599 46.8131 12.6513 46.5828 12.6513 45.7253C12.6513 44.868 12.5597 44.6373 11.9952 44.0724L11.339 43.416L6.57324 43.3732C3.95202 43.3497 1.62659 43.4077 1.4057 43.5019ZM86.7516 66.1087C90.9707 66.9945 94.7466 70.5549 95.8553 74.6927L96.0571 75.4458H84.236H72.4151L72.7227 74.3915C73.2334 72.642 74.372 70.8186 75.8892 69.3207C78.8323 66.4154 82.7269 65.2637 86.7516 66.1087ZM58.426 71.0566C56.644 72.1894 54.1059 73.4089 52.2321 74.0332C48.1815 75.3827 49.7052 75.3062 24.3525 75.4319L1.31292 75.5462L0.65646 76.2026C0.0915711 76.7677 0 76.998 0 77.8555C0 78.713 0.0915711 78.9433 0.65646 79.5084L1.31292 80.1649L14.9673 80.2191L28.6216 80.2735L28.5003 80.8215C28.4336 81.1232 28.036 82.1029 27.6163 82.9988C25.2786 87.992 19.6135 90.7859 14.1763 89.6274C11.8402 89.1296 10.3809 88.3356 8.43759 86.5052C6.80257 84.9651 6.67043 84.884 5.7989 84.884C4.06206 84.884 2.96943 86.3461 3.50179 87.9587C3.75482 88.7254 5.6256 90.6082 7.23331 91.7143C11.9677 94.9719 18.8944 95.4657 24.0977 92.9166C28.5658 90.7279 31.8236 86.7307 33.0997 81.8718L33.548 80.1649L39.9575 80.1283C46.741 80.0894 48.5612 79.939 51.6126 79.165C54.9437 78.32 59.2877 76.3587 61.5205 74.6911C62.8927 73.6665 62.9855 71.9976 61.729 70.9403C60.8472 70.1983 59.7136 70.2383 58.426 71.0566Z" fill="#4F4F4F"/>
</svg>
