<svg width="112" height="94" viewBox="0 0 112 94" fill="none" xmlns="http://www.w3.org/2000/svg">
<path fill-rule="evenodd" clip-rule="evenodd" d="M31.6114 0.216768C27.2753 0.679398 22.0386 2.17784 17.8843 4.14457C10.3008 7.73482 4.73537 13.9957 1.84406 22.1899C0.476598 26.0652 0.00673972 28.9001 9.07696e-05 33.3156C-0.00680443 37.7698 0.377849 40.357 1.59559 44.046C3.38268 49.4599 6.37495 53.9868 11.7544 59.414L15.4151 63.1072L15.7337 61.6026C16.273 59.056 16.901 58.1824 21.4858 53.6022C26.6129 48.4798 27.2477 48.0814 30.257 48.1011C32.6393 48.1166 33.8009 48.6263 35.7562 50.514C37.3721 52.074 38.2759 53.7802 38.4409 55.5822L38.5664 56.9519L40.1986 56.9654C42.1448 56.9819 43.6344 57.5768 45.145 58.9413C46.6639 60.3134 47.5854 61.7877 48.0171 63.5368L48.399 65.0837L50.4095 65.0803C52.9356 65.0759 54.2954 65.6808 56.2738 67.6891C57.8292 69.2676 58.6997 71.1511 58.6997 72.9371V74.0081L60.2846 74.0173C63.6963 74.037 66.9013 76.5175 68.0747 80.0465C68.6305 81.718 69.6106 82.4347 71.3406 82.4347C75.06 82.4347 78.4995 77.8515 77.0963 74.765C76.9331 74.406 71.9237 68.7176 65.9643 62.124C60.0049 55.5305 54.9743 49.8849 54.7857 49.5781C54.0321 48.3552 55.2748 46.8183 56.5449 47.4021C56.8498 47.5422 62.0857 53.1974 68.1806 59.9694C74.2755 66.7412 79.5946 72.4844 80.001 72.732C81.8238 73.8427 84.5422 72.9947 86.3916 70.7385C88.0979 68.6565 88.3604 66.206 87.0456 64.6315C86.6925 64.2085 81.6228 58.5646 75.7796 52.0895C69.9364 45.6144 65.1048 40.1219 65.0425 39.8845C64.7145 38.6306 66.1465 37.53 67.2042 38.2229C67.511 38.4238 72.8282 44.192 79.0204 51.0411C85.2125 57.8902 90.5927 63.6562 90.9764 63.8544C91.9218 64.3434 93.5825 64.2996 94.7764 63.7544C95.9321 63.2266 97.743 61.3413 98.2427 60.1457C98.733 58.9723 98.6911 56.8613 98.1612 56.0397C97.9248 55.6733 90.5858 47.4491 81.8523 37.7642L65.9732 20.1547L59.5572 26.5399C52.1443 33.9174 51.6112 34.2857 48.3569 34.2796C45.9667 34.2751 44.6411 33.6854 42.5854 31.7116C40.4909 29.7008 39.6539 27.8793 39.6699 25.3677C39.6798 23.8634 39.8081 23.3104 40.4503 22.0064C41.1179 20.6501 42.1564 19.5325 48.3667 13.4861C52.298 9.65871 55.4769 6.41463 55.4314 6.27749C55.2688 5.79049 50.9054 3.37959 48.4357 2.41223C43.1018 0.322885 37.4839 -0.410085 31.6114 0.216768ZM72.2439 0.210612C69.9111 0.498925 68.401 0.811368 66.1527 1.47072L64.3708 1.99342L53.9849 12.2378C43.1732 22.9024 42.7038 23.4517 42.7038 25.4369C42.7038 28.2498 45.5895 31.2228 48.3195 31.2228C50.3038 31.2228 50.8911 30.7605 58.3399 23.3338C62.2731 19.4124 65.5954 16.204 65.7227 16.204C65.85 16.204 66.9715 16.7188 68.2146 17.3484C70.3664 18.4376 70.5952 18.4984 72.9831 18.6134C74.5331 18.688 76.0234 18.6168 76.8843 18.4273C78.5414 18.0624 81.3758 16.7986 82.9203 15.7362C84.474 14.6674 85.3861 14.7196 86.0148 15.9127C86.2608 16.3795 86.2458 16.5895 85.9323 17.0677C85.1332 18.2872 81.7011 20.2113 78.6379 21.157C77.2185 21.5953 76.2 21.7267 74.1676 21.7341L71.5354 21.7437L72.0998 22.3593C76.2426 26.8785 99.9042 53.2728 100.426 53.957C100.814 54.4656 101.316 55.5556 101.542 56.3792L101.952 57.8764L103.362 56.183C107.801 50.8535 110.451 45.4615 111.573 39.479C112.194 36.1628 112.128 30.1388 111.435 26.8679C110.018 20.182 107.059 14.5526 102.663 10.1718C99.0179 6.54069 94.801 4.03057 89.2479 2.18695C83.9891 0.440819 76.9762 -0.374139 72.2439 0.210612ZM28.2869 51.5485C27.2238 52.0944 19.8455 59.4888 19.2813 60.5736C17.2792 64.4222 21.5365 69.1723 25.6237 67.65C26.5365 67.31 34.219 59.675 34.83 58.5006C36.0706 56.116 34.9144 52.9812 32.2985 51.6357C31.1901 51.0657 29.3064 51.0248 28.2869 51.5485ZM38.1372 60.3811C37.7309 60.564 35.4978 62.6371 33.1746 64.988C28.9826 69.2304 28.4128 70.0215 28.4128 71.6014C28.4128 73.2318 30.1787 75.7626 31.7882 76.439C32.9129 76.9115 34.6768 76.8514 35.7461 76.3043C36.9732 75.6765 44.3399 68.1525 44.7958 67.0616C45.1846 66.1311 45.2452 65.2174 44.9997 63.9898C44.8046 63.0143 42.8481 60.8078 41.7843 60.3634C40.7744 59.9416 39.0961 59.9497 38.1372 60.3811ZM48.3569 68.6356C47.1158 69.2969 39.814 76.7756 39.3685 77.8417C38.5817 79.7244 39.1417 81.8103 40.8783 83.4663C41.4023 83.9661 42.1431 84.4925 42.5243 84.6358C43.4862 84.9978 45.0206 84.9618 45.9638 84.5551C46.3996 84.3672 48.6568 82.2897 50.98 79.9386C55.1721 75.6962 55.7419 74.9048 55.7419 73.3249C55.7419 71.6945 53.976 69.1637 52.3665 68.4874C51.2558 68.0208 49.3806 68.09 48.3569 68.6356ZM58.3303 77.4851C57.7216 77.7671 55.7801 79.5294 53.2488 82.0972C49.1964 86.2081 48.6059 87.0339 48.6059 88.59C48.6059 90.8344 51.542 93.9825 53.6514 93.9997C55.3454 94.0138 56.0803 93.4989 60.2671 89.3658C64.6054 85.0835 65.3378 84.0646 65.3378 82.3116C65.3378 79.7082 62.6738 77.0065 60.1236 77.0235C59.6791 77.0264 58.8721 77.2342 58.3303 77.4851Z" fill="#4F4F4F"/>
</svg>
