<svg width="59" height="85" viewBox="0 0 59 85" fill="none" xmlns="http://www.w3.org/2000/svg">
<path d="M12.167 21.1214C5.94838 16.145 2.67257 9.90494 4.85016 7.18389C7.02775 4.46281 13.8342 6.29115 20.0526 11.2675C26.2711 16.244 29.547 22.484 27.3695 25.2051C25.1919 27.9261 18.3856 26.0978 12.167 21.1214Z" fill="#29C16E"/>
<path d="M33.0233 26.0082C31.1517 24.1366 33.8001 18.4537 38.9387 13.3151C44.0773 8.17652 49.7602 5.5281 51.6318 7.3997C53.5034 9.27129 50.855 14.9542 45.7164 20.0928C40.5778 25.2314 34.8949 27.8798 33.0233 26.0082Z" fill="#29C16E"/>
<path d="M7.83714 53.6582C5.11585 51.481 6.94435 44.6746 11.9207 38.4559C16.897 32.2374 23.1371 28.9615 25.8582 31.1391C28.5792 33.3166 26.7509 40.123 21.7745 46.3414C16.7983 52.5599 10.558 55.8358 7.83714 53.6582Z" fill="#EF3C56"/>
<path d="M52.8988 56.0035C52.8988 62.4813 50.3255 68.6939 45.745 73.2741C41.1645 77.8548 34.9521 80.428 28.4743 80.428C14.9846 80.428 -5.15057 58.3023 7.67461 54.1292C21.7457 49.5518 28.2351 32.0529 31.1514 31.7258C44.5564 30.2215 52.8988 42.5142 52.8988 56.0035Z" fill="#EF3C56"/>
<path d="M58.9882 3.68639C58.9813 8.95277 57.5666 14.1216 54.8907 18.6574C52.2148 23.1933 48.3749 26.9313 43.7687 29.4844C46.1828 30.8233 48.3977 32.4932 50.3492 34.4455C54.7272 38.8191 57.6189 44.4587 58.6152 50.5661C59.6114 56.6736 58.6618 62.9399 55.9007 68.478C53.1396 74.016 48.7068 78.5458 43.2296 81.4259C37.7524 84.3057 31.5082 85.3907 25.3806 84.5264C19.253 83.6621 13.5521 80.8931 9.08498 76.6105C4.61786 72.328 1.61088 66.7494 0.488979 60.6636C-0.632915 54.5779 0.187244 48.2935 2.83389 42.6996C5.48014 37.1059 9.81887 32.486 15.2354 29.4936C10.623 26.9442 6.77779 23.2062 4.09864 18.6681C1.41948 14.1299 0.00427628 8.95718 0.000263214 3.6872C0.000263214 3.20301 0.095356 2.72354 0.280731 2.27618C0.46571 1.82882 0.737354 1.42233 1.07962 1.07994C1.42229 0.737541 1.82876 0.465946 2.27616 0.280667C2.72315 0.095387 3.20264 5.21522e-05 3.68695 0.000104868C7.56183 -0.0102616 11.4006 0.748038 14.9802 2.23112C18.5601 3.7142 21.8104 5.89259 24.5428 8.64023C26.4949 10.5918 28.1647 12.8068 29.5034 15.2207C32.0544 10.6128 35.792 6.77145 40.3283 4.09526C44.8647 1.41905 50.0346 0.00551084 55.3015 0.0013049C55.7855 0.0011995 56.2648 0.0964371 56.7121 0.281573C57.1593 0.466709 57.5657 0.738119 57.908 1.08031C58.2504 1.4225 58.522 1.82878 58.7073 2.27593C58.8926 2.72308 58.9881 3.20236 58.9882 3.68639ZM25.4319 25.4266C24.6111 21.0416 22.4839 17.0071 19.3294 13.8525C16.1751 10.6979 12.1405 8.5705 7.75564 7.74946C8.58261 12.1318 10.7121 16.1629 13.8651 19.3164C17.0185 22.4699 21.0497 24.5993 25.4319 25.4266ZM13.8603 39.6666C10.7048 42.8172 8.5766 46.8494 7.75564 51.2322C12.1357 50.404 16.1651 48.2754 19.3171 45.1232C22.4692 41.9709 24.5982 37.9421 25.4263 33.5619C21.0432 34.3828 17.0113 36.511 13.8603 39.6666ZM45.1362 39.6593C41.8289 36.3347 37.5439 34.1563 32.9089 33.4436C32.04 39.8401 29.098 45.7756 24.5335 50.3402C19.969 54.9049 14.034 57.8472 7.63727 58.7163C8.17615 62.1675 9.52475 65.4421 11.5727 68.2717C13.6203 71.1014 16.3091 73.4061 19.4189 74.9967C22.5286 76.5877 25.9708 77.4195 29.4638 77.4243C32.9568 77.4287 36.4012 76.6065 39.5152 75.024C42.6292 73.4415 45.3242 71.1443 47.3796 68.3199C49.435 65.4959 50.7924 62.2249 51.3408 58.7753C51.8891 55.3258 51.6127 51.7952 50.5343 48.4728C49.4559 45.1505 47.606 42.131 45.1362 39.6609V39.6593ZM51.2352 7.75467C46.8548 8.5827 42.8257 10.7117 39.6734 13.864C36.5212 17.0162 34.3921 21.0454 33.5641 25.4258C37.9442 24.5975 41.9731 22.4685 45.1251 19.3162C48.277 16.1639 50.4058 12.1349 51.2336 7.75467H51.2352Z" fill="#0E1E28"/>
</svg>
