<svg width="65" height="94" viewBox="0 0 65 94" fill="none" xmlns="http://www.w3.org/2000/svg">
<path d="M52.0537 41.6382C52.0537 41.6704 52.0215 41.6704 52.0215 41.7026C50.8622 43.6026 47.5131 43.8602 45.9352 45.4382C44.3573 47.0161 44.0996 50.4296 42.1353 51.5567C40.2031 52.6838 37.1438 51.2025 34.9218 51.7821C34.5032 51.8787 34.0846 52.1041 33.6981 52.3296C32.0236 53.36 30.4456 55.1956 28.5779 55.1956C28.5135 55.1956 28.4813 55.1956 28.4169 55.1956C26.1627 55.0668 24.2949 52.3618 22.2339 51.7821C20.0441 51.2025 16.9527 52.6838 15.0205 51.5567C13.0561 50.4296 12.8307 47.0161 11.2206 45.4382C10.5121 44.7297 9.44941 44.2789 8.35451 43.828C7.0342 43.2806 5.71388 42.7331 5.06982 41.6382C3.94272 39.7061 5.42405 36.6468 4.8444 34.4248C4.26475 32.2994 1.43091 30.3994 1.43091 28.0808C1.43091 25.7622 4.26475 23.8623 4.8444 21.7369C5.42405 19.5471 3.94272 16.4556 5.06982 14.5235C6.19692 12.5591 9.61042 12.3337 11.1884 10.7235C12.7663 9.14558 13.0239 5.73208 14.9883 4.60498C16.9205 3.47788 19.9797 4.95922 22.2017 4.37957C24.3271 3.79991 26.2271 0.966064 28.5457 0.966064C30.8643 0.966064 32.7642 3.79991 34.8896 4.37957C37.0794 4.95922 40.1709 3.47788 42.1031 4.60498C44.0674 5.73208 44.2929 9.14558 45.903 10.7235C47.4809 12.3015 50.8944 12.5591 52.0215 14.5235C53.1486 16.4556 51.6351 19.5149 52.247 21.7369C52.8266 23.8623 55.6604 25.7622 55.6604 28.0808C55.6604 30.3994 52.8266 32.2994 52.247 34.4248C51.6995 36.6468 53.1808 39.7061 52.0537 41.6382Z" fill="#C7BA8C"/>
<path d="M28.5779 56.1617C28.5135 56.1617 28.4169 56.1617 28.3524 56.1617C26.8067 56.0651 25.583 55.099 24.3593 54.1651C23.522 53.5211 22.717 52.9092 21.9763 52.716C21.1712 52.4906 20.1729 52.6194 19.078 52.7804C17.5001 52.9736 15.8899 53.1991 14.5374 52.394C13.1527 51.5889 12.5409 50.0754 11.929 48.6262C11.5104 47.628 11.1239 46.6941 10.5443 46.1144C9.96464 45.5348 9.03076 45.1483 8.03248 44.7297H8.00026C6.61554 44.1501 5.06981 43.506 4.26474 42.1213C3.49188 40.7688 3.68509 39.1586 3.8783 37.5807C4.00712 36.4858 4.13593 35.4875 3.94271 34.6824C3.7495 33.9418 3.13764 33.1367 2.49359 32.2994C1.55971 31.0757 0.497009 29.7232 0.497009 28.0809C0.497009 26.4385 1.55971 25.086 2.49359 23.8623C3.13764 23.025 3.7495 22.2199 3.94271 21.4793C4.16813 20.6742 4.03932 19.6759 3.8783 18.581C3.68509 17.0031 3.45967 15.3929 4.26474 14.0404C5.06981 12.6557 6.58335 12.0439 8.03248 11.432C9.03076 11.0134 9.96464 10.6269 10.5443 10.0473C11.1239 9.46762 11.5104 8.53374 11.8968 7.53546C12.5087 6.05413 13.1527 4.54059 14.5052 3.76772C15.8578 2.99486 17.4679 3.18808 19.0458 3.3813C20.1407 3.51011 21.139 3.63891 21.9441 3.4457C22.6847 3.25248 23.4898 2.64063 24.3271 1.99657C25.5508 1.06269 26.9033 0 28.5457 0C30.188 0 31.5405 1.06269 32.7642 1.99657C33.6015 2.64063 34.4066 3.25248 35.1472 3.4457C35.9523 3.67112 36.9506 3.54231 38.0455 3.3813C39.6234 3.18808 41.2336 2.96265 42.5861 3.76772C43.9708 4.57279 44.5827 6.08633 45.1945 7.53546C45.6132 8.53374 45.9996 9.46762 46.5792 10.0473C47.1589 10.6269 48.0928 11.0134 49.0911 11.432C50.5724 12.0439 52.0859 12.6557 52.8588 14.0404C53.6316 15.3929 53.4384 17.0031 53.2452 18.581C53.1164 19.6759 52.9876 20.6742 53.1808 21.4793C53.374 22.2199 53.9859 23.025 54.6299 23.8623C55.5638 25.086 56.6265 26.4385 56.6265 28.0809C56.6265 29.7232 55.5638 31.0757 54.6299 32.2994C53.9859 33.1367 53.374 33.9418 53.1808 34.6824C52.9554 35.4875 53.0842 36.518 53.2452 37.5807C53.4384 39.1264 53.6638 40.7688 52.8588 42.1213C52.8266 42.1535 52.8266 42.1857 52.7944 42.2501C51.9893 43.5382 50.508 44.1501 49.0911 44.7619C48.0928 45.1805 47.1589 45.567 46.5792 46.1466C45.9996 46.7263 45.6132 47.6602 45.1945 48.6585C44.5827 50.1398 43.9708 51.6533 42.5861 52.4262C41.2336 53.1991 39.6234 53.0058 38.0455 52.8126C36.9506 52.6838 35.9523 52.555 35.1472 52.7482C34.8574 52.8126 34.5354 52.9736 34.1811 53.1991C33.7303 53.4889 33.2795 53.8431 32.7642 54.1973C31.6049 55.099 30.2202 56.1617 28.5779 56.1617ZM53.1164 31.1401C53.9215 30.0774 54.6943 29.0791 54.6943 28.0809C54.6943 27.1148 53.9215 26.1165 53.1164 25.0216C52.3758 24.0555 51.6351 23.0894 51.3453 21.9623C51.0232 20.803 51.1842 19.5471 51.3453 18.3234C51.4741 17.2285 51.6029 16.2302 51.4097 15.4574C51.3774 15.2963 51.3131 15.1353 51.2164 15.0065C50.7656 14.2014 49.6063 13.7184 48.3826 13.2032C47.964 13.0421 47.5131 12.8489 47.0945 12.6557C46.4182 12.3337 45.7742 11.9472 45.2267 11.432C44.6793 10.8846 44.2928 10.2083 43.9386 9.49983C43.7454 9.1134 43.5844 8.69476 43.4234 8.30832C43.1979 7.76088 42.9725 7.21343 42.7149 6.76259C42.3929 6.18294 42.0709 5.7321 41.62 5.47448C41.2014 5.21686 40.6539 5.15245 40.0421 5.18466C39.4946 5.18466 38.8828 5.28126 38.2709 5.34567C37.0472 5.50668 35.7913 5.6677 34.632 5.34567C34.3422 5.28126 34.0845 5.18465 33.8269 5.05584C33.0219 4.6694 32.3134 4.12196 31.6049 3.57451C30.5422 2.76944 29.5439 1.99657 28.5457 1.99657C27.5796 1.99657 26.5491 2.76944 25.4864 3.57451C24.5203 4.31518 23.5542 5.05584 22.4271 5.34567C21.2678 5.6677 20.0119 5.50668 18.7882 5.34567C17.5001 5.18466 16.2442 5.02364 15.4713 5.47448C14.6662 5.95752 14.1832 7.08462 13.668 8.30832C13.1849 9.43542 12.7019 10.5947 11.8646 11.432C11.0273 12.2693 9.86802 12.7523 8.74092 13.2032C7.51722 13.7184 6.35793 14.2014 5.87488 15.0065C5.42404 15.8116 5.58505 17.0353 5.74606 18.3234C5.90708 19.5471 6.06809 20.803 5.74606 21.9623C5.45624 23.0894 4.68337 24.0555 3.97491 25.0216C3.16984 26.0843 2.39698 27.0826 2.39698 28.0487C2.39698 28.2741 2.42917 28.4995 2.52578 28.7249C2.78341 29.4978 3.36307 30.2706 4.00712 31.0757C4.23254 31.3655 4.45796 31.6554 4.65118 31.9452C5.13422 32.6214 5.58506 33.3621 5.77828 34.135C5.81048 34.296 5.84268 34.457 5.87488 34.618C6.0359 35.6485 5.90709 36.7434 5.77828 37.7739C5.74608 37.9993 5.71387 38.2247 5.71387 38.4502C5.58506 39.5129 5.55286 40.4467 5.93929 41.123C6.26132 41.7026 6.96978 42.1213 7.74264 42.4755C8.06467 42.6365 8.41889 42.7654 8.74092 42.9264H8.77314C9.90024 43.4094 11.0595 43.8924 11.929 44.7297C12.0578 44.8585 12.1866 44.9873 12.2832 45.1161C12.9273 45.9212 13.3137 46.8873 13.7324 47.8534C14.2476 49.0771 14.7307 50.2364 15.5357 50.6872C16.3408 51.1381 17.5645 50.9771 18.8526 50.8161C19.5611 50.7194 20.3017 50.6228 21.0102 50.6228C21.5255 50.6228 22.0085 50.655 22.4915 50.7838C23.6186 51.0737 24.5847 51.8465 25.5508 52.555C26.5813 53.3601 27.5474 54.0041 28.5135 54.0685L28.5779 54.0041H28.6101C29.5761 54.0041 30.6066 53.3279 31.6693 52.4906C32.1846 52.1042 32.6998 51.7499 33.2473 51.3957C33.7625 51.0737 34.2456 50.8805 34.7286 50.7516C35.8879 50.4296 37.1438 50.6228 38.3997 50.7838C39.6878 50.9449 40.9115 51.1059 41.7166 50.655C42.5217 50.172 43.0047 49.0449 43.52 47.8212C44.003 46.6941 44.4861 45.5348 45.3233 44.6975C46.1606 43.8602 47.3199 43.3772 48.447 42.8941C49.6385 42.4111 50.7978 41.9281 51.2809 41.1552L51.313 41.0908C51.7639 40.2857 51.6029 39.062 51.4419 37.7739C51.2809 36.5502 51.1198 35.2943 51.4419 34.135C51.6351 33.0723 52.408 32.1062 53.1164 31.1401Z" fill="#373737"/>
<path d="M63.7756 85.2409L47.9318 76.9325L38.4319 92.1L31.4117 66.209L28.4169 55.1956C28.4813 55.1956 28.5135 55.1956 28.5779 55.1956C30.4456 55.1956 32.0236 53.3601 33.6981 52.3296C34.0846 52.0719 34.5032 51.8787 34.9218 51.7821C37.1116 51.2025 40.2031 52.6838 42.1353 51.5567C44.0996 50.4296 44.3251 47.0161 45.9352 45.4382C47.5131 43.8602 50.8622 43.6026 52.0215 41.7026L63.7756 85.2409Z" fill="#E15346"/>
<path d="M38.4319 93.0661C38.3997 93.0661 38.3353 93.0661 38.3031 93.0661C37.9167 93.0017 37.6269 92.7441 37.4981 92.3576L27.5152 55.4532C27.4186 55.1312 27.5152 54.8091 27.7084 54.5837C27.9338 54.3261 28.2236 54.2295 28.5457 54.2617H28.5779C29.544 54.2617 30.5423 53.4888 31.6372 52.6838C32.1524 52.2973 32.6676 51.8787 33.2151 51.5567C33.7303 51.2346 34.2134 51.0092 34.6964 50.8804C35.8557 50.5584 37.1438 50.7194 38.3353 50.8804C39.6234 51.0414 40.8794 51.2024 41.6522 50.7516C42.4573 50.2686 42.9403 49.1415 43.4556 47.9177C43.9386 46.7906 44.4217 45.6313 45.2589 44.7941C46.0962 43.9568 47.2555 43.4737 48.3826 42.9907C49.5741 42.5077 50.7334 42.0246 51.2165 41.2518C51.4097 40.9297 51.7961 40.7365 52.1825 40.8009C52.569 40.8653 52.891 41.1229 52.9876 41.5094L64.7094 84.9832C64.8061 85.3696 64.6772 85.756 64.3874 85.9815C64.0976 86.2069 63.6789 86.2713 63.3247 86.0781L48.286 78.2206L39.237 92.6153C39.0438 92.9051 38.754 93.0661 38.4319 93.0661ZM51.5063 43.5704C50.7978 44.0534 49.9284 44.4076 49.0911 44.7619C48.0928 45.1805 47.1589 45.5669 46.5792 46.1466C46.0318 46.694 45.6776 47.5635 45.2589 48.4974C45.2267 48.5618 45.2267 48.594 45.1945 48.6584C44.5827 50.1075 43.9708 51.6533 42.5861 52.4261C41.2336 53.199 39.6234 53.0058 38.0455 52.8126C36.9506 52.6838 35.9523 52.555 35.1472 52.7482C34.8896 52.8126 34.5676 52.9414 34.2456 53.1346C34.2134 53.1346 34.1812 53.1668 34.1812 53.1668C33.7303 53.4566 33.2795 53.8109 32.7643 54.1651C31.8304 54.8735 30.7999 55.6786 29.6084 56.0006L38.7218 89.6848L42.4895 83.6951L47.0623 76.4172C47.3199 75.9986 47.8674 75.8376 48.3182 76.063L53.4062 78.7358L62.1976 83.3408L51.5063 43.5704Z" fill="#373737"/>
<path d="M31.4117 66.2091L26.9678 93.034L15.9544 78.897L0.947876 88.7188L8.38672 43.8281C9.44941 44.279 10.5443 44.7298 11.2528 45.4383C12.8307 47.0162 13.0883 50.4297 15.0527 51.5568C16.9849 52.6839 20.0441 51.2026 22.2661 51.7822C24.3593 52.3297 26.2271 55.0669 28.4491 55.1957L31.4117 66.2091Z" fill="#E15346"/>
<path d="M26.9678 93.9999C26.6779 93.9999 26.3881 93.8711 26.1949 93.6135L15.729 80.1849L1.49532 89.5237C1.17329 89.7492 0.754656 89.7492 0.432628 89.5237C0.1106 89.2983 -0.0504104 88.9441 0.0139952 88.5577L7.45284 43.6669C7.51724 43.3771 7.67826 43.1195 7.93588 42.9907C8.1935 42.8619 8.51554 42.8297 8.77317 42.9585H8.80536C9.93246 43.4415 11.0918 43.9245 11.929 44.7618C12.7663 45.5991 13.2493 46.7584 13.7324 47.8855C14.2476 49.1092 14.7307 50.2685 15.5358 50.7516C16.3086 51.2024 17.5645 51.0414 18.8526 50.8804C20.0764 50.7193 21.3323 50.5583 22.4916 50.8804C23.6187 51.1702 24.5847 51.943 25.5508 52.6515C26.5813 53.4566 27.5474 54.1973 28.4813 54.2295C28.8999 54.2617 29.2541 54.5515 29.3508 54.9379L32.3456 65.9513C32.3778 66.0801 32.3778 66.2411 32.3778 66.3699L27.9338 93.1949C27.8694 93.5813 27.5796 93.8711 27.2254 93.9677C27.1288 93.9999 27.0322 93.9999 26.9678 93.9999ZM27.6762 56.065C27 55.904 26.3559 55.582 25.7762 55.1955C25.2932 54.8735 24.8424 54.5515 24.3915 54.1973C23.5543 53.5532 22.7492 52.9413 22.0085 52.7481C21.2034 52.5227 20.2052 52.6837 19.1103 52.8125C17.5645 53.0057 15.9222 53.2312 14.5697 52.4261C14.4731 52.3617 14.3764 52.2973 14.2798 52.2329C13.0883 51.3956 12.5087 50.0109 11.9612 48.6584C11.5426 47.6601 11.1562 46.7262 10.6087 46.1466C10.2545 45.7923 9.73925 45.5025 9.1918 45.2449L2.30039 86.7543L8.64435 82.6001L15.4392 78.1561C15.6002 78.0595 15.7934 77.9951 15.9544 77.9951C16.2442 77.9951 16.534 78.1239 16.7273 78.3816L20.5594 83.3086L26.3881 90.7797L30.4457 66.3055L27.6762 56.065Z" fill="#373737"/>
<path d="M23.2 35.9705H26.6779V20.5132H23.0712V16.5522H30.9931V35.9705H34.1811V39.6739H23.2V35.9705Z" fill="#373737"/>
<path d="M25.744 55.1636L20.5272 83.2122L16.695 78.2852C16.5018 78.0276 16.212 77.8988 15.9222 77.8988C15.7289 77.8988 15.5679 77.9632 15.4069 78.0598L8.61212 82.5038L14.2476 52.1687C14.3442 52.2331 14.4408 52.2975 14.5374 52.3619C15.8899 53.1348 17.5001 52.9416 19.078 52.7484C20.1729 52.6196 21.1712 52.4907 21.9763 52.684C22.717 52.8772 23.522 53.489 24.3593 54.1331C24.8101 54.5195 25.261 54.8738 25.744 55.1636Z" fill="#D3CFA9"/>
<path d="M53.4707 78.7357L48.3826 76.0629C47.9318 75.8375 47.3843 75.9663 47.1267 76.4171L42.5539 83.695L34.31 53.1023C34.632 52.9091 34.9541 52.7803 35.2117 52.7159C36.0167 52.4904 37.0472 52.6193 38.1099 52.7803C39.6557 52.9735 41.298 53.1989 42.6505 52.3938C44.0353 51.5888 44.6471 50.0752 45.259 48.6261C45.2912 48.5617 45.2912 48.5295 45.3234 48.4651L53.4707 78.7357Z" fill="#D3CFA9"/>
</svg>
